<svg xmlns="http://www.w3.org/2000/svg" width="29" height="29" viewBox="0 0 29 29" fill="none">
  <g clip-path="url(#clip0_2402_3598)">
    <path fill-rule="evenodd" clip-rule="evenodd" d="M27.8995 2.65804C26.8677 0.692436 23.4741 1.30984 20.5411 2.09524C7.79136 6.79364 3.28056 16.3417 1.69576 22.0299C1.61736 22.1727 1.56976 22.3365 1.56556 22.5115C0.938362 24.9251 0.852962 26.5337 0.851562 26.5869C0.827762 27.1651 1.27716 27.6537 1.85536 27.6775C1.87076 27.6789 1.88616 27.6789 1.90156 27.6789C2.46016 27.6789 2.92496 27.2379 2.95016 26.6737C2.95716 26.5029 3.02156 25.3283 3.41776 23.5727C6.92896 23.4243 10.464 22.1167 13.9359 19.6751C14.2075 19.4847 14.3727 19.1767 14.3825 18.8463C14.3923 18.5145 14.2439 18.1981 13.9849 17.9937L12.3833 16.7253L17.6389 16.2101C17.8531 16.1891 18.0547 16.1037 18.2185 15.9637C18.3319 15.8685 21.0073 13.5781 23.5525 10.9082C27.4235 6.84824 28.7633 4.30444 27.8995 2.65804Z" fill="#335CFF"/>
    <path fill-rule="evenodd" clip-rule="evenodd" d="M21.6785 25.5798H12.7045C12.1249 25.5798 11.6545 26.0502 11.6545 26.6298C11.6545 27.2094 12.1249 27.6798 12.7045 27.6798H21.6785C22.2581 27.6798 22.7285 27.2094 22.7285 26.6298C22.7285 26.0502 22.2581 25.5798 21.6785 25.5798Z" fill="#335CFF"/>
  </g>
  <defs>
    <clipPath id="clip0_2402_3598">
      <rect width="28" height="28" fill="white" transform="translate(0.5 0.5)"/>
    </clipPath>
  </defs>
</svg>