<svg xmlns="http://www.w3.org/2000/svg" width="24" height="24" viewBox="0 0 24 24" fill="none">
  <path fill-rule="evenodd" clip-rule="evenodd" d="M11.2485 3.5C7.22315 3.5 3.95996 6.76319 3.95996 10.7886C3.95996 14.8139 7.22315 18.0771 11.2485 18.0771C15.2738 18.0771 18.537 14.8139 18.537 10.7886C18.537 6.76319 15.2738 3.5 11.2485 3.5ZM2.45996 10.7886C2.45996 5.93477 6.39472 2 11.2485 2C16.1023 2 20.037 5.93477 20.037 10.7886C20.037 15.6424 16.1023 19.5771 11.2485 19.5771C6.39472 19.5771 2.45996 15.6424 2.45996 10.7886Z" fill="#335CFF"/>
  <path fill-rule="evenodd" clip-rule="evenodd" d="M16.7361 15.6475L22.3516 21.2484L21.2923 22.3104L15.6768 16.7095L16.7361 15.6475Z" fill="#335CFF"/>
</svg>